<svg width="512" height="369" viewBox="0 0 512 369" fill="none" xmlns="http://www.w3.org/2000/svg">
<path d="M112.458 106.639H399.539L434.337 23.511H77.659L112.458 106.639Z" fill="#808080"/>
<path d="M399.539 106.639H112.458L77.659 23.511H19.666C14.348 23.511 10 27.862 10 33.177V332.823C10 338.138 14.348 342.489 19.666 342.489H492.333C497.651 342.489 502.001 338.138 502.001 332.823V33.177C502.001 27.862 497.651 23.511 492.333 23.511H434.337L399.539 106.639ZM147.256 165.601H364.74C389.728 165.601 410.171 186.041 410.171 211.032C410.171 236.02 389.729 256.463 364.74 256.463H147.256C122.269 256.463 101.827 236.021 101.827 211.032C101.827 186.042 122.269 165.601 147.256 165.601Z" fill="#27D8A9"/>
<path d="M492.333 13.511H434.337H77.659H19.666C8.822 13.511 0 22.334 0 33.177V332.823C0 343.667 8.822 352.489 19.666 352.489H492.333C503.178 352.489 512.001 343.667 512.001 332.823V33.177C512.001 22.334 503.178 13.511 492.333 13.511ZM419.31 33.511L392.885 96.639H119.112L92.686 33.511C92.686 33.511 419.31 33.511 419.31 33.511ZM492.001 332.49H20V33.511H71.005L103.234 110.5C104.791 114.219 108.427 116.639 112.459 116.639H399.54C403.571 116.639 407.208 114.219 408.765 110.5L440.994 33.511H492.003V332.49H492.001Z" fill="black"/>
<path d="M364.74 155.601H147.256C116.693 155.601 91.827 180.467 91.827 211.032C91.827 241.596 116.692 266.463 147.256 266.463H364.74C395.304 266.463 420.171 241.597 420.171 211.032C420.171 180.467 395.305 155.601 364.74 155.601ZM309.314 211.033C309.314 224.496 314.143 236.85 322.155 246.464H189.846C197.858 236.851 202.687 224.496 202.687 211.033C202.687 197.57 197.859 185.217 189.847 175.602H322.153C314.142 185.215 309.314 197.569 309.314 211.033ZM113.273 221.033H115.21C120.732 221.033 125.21 216.555 125.21 211.033C125.21 205.511 120.732 201.033 115.21 201.033H113.273C116.665 189.526 125.749 180.441 137.255 177.049V178.988C137.255 184.511 141.733 188.988 147.255 188.988C152.778 188.988 157.255 184.511 157.255 178.988V177.049C168.762 180.441 177.847 189.526 181.239 201.033H179.3C173.778 201.033 169.3 205.511 169.3 211.033C169.3 216.555 173.778 221.033 179.3 221.033H181.239C177.846 232.539 168.761 241.623 157.255 245.015V243.078C157.255 237.556 152.778 233.078 147.255 233.078C141.733 233.078 137.255 237.556 137.255 243.078V245.017C125.749 241.624 116.665 232.539 113.273 221.033ZM374.74 245.016V243.077C374.74 237.555 370.262 233.077 364.74 233.077C359.218 233.077 354.74 237.555 354.74 243.077V245.013C343.235 241.619 334.152 232.536 330.76 221.032H332.698C338.22 221.032 342.698 216.554 342.698 211.032C342.698 205.51 338.22 201.032 332.698 201.032H330.76C334.152 189.525 343.235 180.44 354.74 177.048V178.987C354.74 184.51 359.218 188.987 364.74 188.987C370.262 188.987 374.74 184.51 374.74 178.987V177.048C386.247 180.441 395.332 189.526 398.724 201.032H396.787C391.265 201.032 386.787 205.51 386.787 211.032C386.787 216.554 391.265 221.032 396.787 221.032H398.724C395.332 232.539 386.247 241.624 374.74 245.016Z" fill="black"/>
<path d="M224.823 75.077H225.061C230.584 75.077 235.061 70.599 235.061 65.077C235.061 59.554 230.584 55.077 225.061 55.077H224.823C219.301 55.077 214.823 59.554 214.823 65.077C214.823 70.599 219.301 75.077 224.823 75.077Z" fill="black"/>
<path d="M145.059 75.073H196.095C201.618 75.073 206.095 70.595 206.095 65.073C206.095 59.55 201.618 55.073 196.095 55.073H145.059C139.537 55.073 135.059 59.55 135.059 65.073C135.059 70.595 139.536 75.073 145.059 75.073Z" fill="black"/>
<path d="M458.999 76.51C464.509 76.51 469.001 72.018 469.001 66.51C469.001 61.003 464.509 56.511 458.999 56.511C453.494 56.511 449.002 61.003 449.002 66.51C449.002 72.018 453.494 76.51 458.999 76.51Z" fill="black"/>
<path d="M52.999 56.511C47.491 56.511 42.999 61.003 42.999 66.51C42.999 72.018 47.491 76.51 52.999 76.51C58.507 76.51 62.999 72.018 62.999 66.51C62.999 61.003 58.507 56.511 52.999 56.511Z" fill="black"/>
<path d="M458.999 289.491C453.494 289.491 449.002 293.983 449.002 299.491C449.002 304.998 453.494 309.49 458.999 309.49C464.509 309.49 469.001 304.998 469.001 299.491C469.001 293.983 464.509 289.491 458.999 289.491Z" fill="black"/>
<path d="M52.999 289.491C47.491 289.491 42.999 293.983 42.999 299.491C42.999 304.998 47.491 309.49 52.999 309.49C58.507 309.49 62.999 304.998 62.999 299.491C62.999 293.983 58.507 289.491 52.999 289.491Z" fill="black"/>
</svg>
