<svg width="300" height="300" viewBox="0 0 300 300" fill="none" xmlns="http://www.w3.org/2000/svg">
<rect width="300" height="300" fill="white"/>
<rect x="5" y="5" width="290" height="290" fill="white" stroke="#5C5C5C" stroke-width="10"/>
<path d="M89.56 122V53.75H113.466C121.747 53.75 128.029 55.3438 132.31 58.5312C136.591 61.6875 138.732 66.3281 138.732 72.4531C138.732 75.7969 137.872 78.75 136.154 81.3125C134.435 83.8438 132.044 85.7031 128.982 86.8906C132.482 87.7656 135.232 89.5312 137.232 92.1875C139.263 94.8438 140.279 98.0938 140.279 101.938C140.279 108.5 138.185 113.469 133.997 116.844C129.81 120.219 123.841 121.938 116.091 122H89.56ZM103.622 92.2812V110.703H115.669C118.982 110.703 121.56 109.922 123.404 108.359C125.279 106.766 126.216 104.578 126.216 101.797C126.216 95.5469 122.982 92.375 116.513 92.2812H103.622ZM103.622 82.3438H114.029C121.122 82.2188 124.669 79.3906 124.669 73.8594C124.669 70.7656 123.763 68.5469 121.951 67.2031C120.169 65.8281 117.341 65.1406 113.466 65.1406H103.622V82.3438ZM209.299 122H195.237V92.75H167.815V122H153.753V53.75H167.815V81.4062H195.237V53.75H209.299V122ZM35.2375 213.703H65.0969V225H21.175V156.75H35.2375V213.703ZM88.3206 205.828L97.6956 174.281H112.227L91.8363 232.875L90.7113 235.547C87.68 242.172 82.68 245.484 75.7113 245.484C73.7425 245.484 71.7425 245.188 69.7113 244.594V234.328L71.7738 234.375C74.3363 234.375 76.2425 233.984 77.4925 233.203C78.7738 232.422 79.7738 231.125 80.4925 229.312L82.0863 225.141L64.3206 174.281H78.8988L88.3206 205.828ZM148.951 186.984C147.107 186.734 145.482 186.609 144.076 186.609C138.951 186.609 135.591 188.344 133.998 191.812V225H120.451V174.281H133.248L133.623 180.328C136.341 175.672 140.107 173.344 144.919 173.344C146.419 173.344 147.826 173.547 149.138 173.953L148.951 186.984ZM172.69 225H159.096V174.281H172.69V225ZM158.299 161.156C158.299 159.125 158.971 157.453 160.315 156.141C161.69 154.828 163.549 154.172 165.893 154.172C168.206 154.172 170.049 154.828 171.424 156.141C172.799 157.453 173.487 159.125 173.487 161.156C173.487 163.219 172.784 164.906 171.378 166.219C170.003 167.531 168.174 168.188 165.893 168.188C163.612 168.188 161.768 167.531 160.362 166.219C158.987 164.906 158.299 163.219 158.299 161.156ZM207.867 215.016C210.367 215.016 212.398 214.328 213.961 212.953C215.523 211.578 216.336 209.75 216.398 207.469H229.101C229.07 210.906 228.133 214.062 226.289 216.938C224.445 219.781 221.914 222 218.695 223.594C215.508 225.156 211.976 225.938 208.101 225.938C200.851 225.938 195.133 223.641 190.945 219.047C186.758 214.422 184.664 208.047 184.664 199.922V199.031C184.664 191.219 186.742 184.984 190.898 180.328C195.054 175.672 200.758 173.344 208.008 173.344C214.351 173.344 219.429 175.156 223.242 178.781C227.086 182.375 229.039 187.172 229.101 193.172H216.398C216.336 190.547 215.523 188.422 213.961 186.797C212.398 185.141 210.336 184.312 207.773 184.312C204.617 184.312 202.226 185.469 200.601 187.781C199.008 190.062 198.211 193.781 198.211 198.938V200.344C198.211 205.562 199.008 209.312 200.601 211.594C202.195 213.875 204.617 215.016 207.867 215.016ZM267.184 210.984C267.184 209.328 266.356 208.031 264.7 207.094C263.075 206.125 260.45 205.266 256.825 204.516C244.762 201.984 238.731 196.859 238.731 189.141C238.731 184.641 240.591 180.891 244.309 177.891C248.059 174.859 252.95 173.344 258.981 173.344C265.419 173.344 270.559 174.859 274.403 177.891C278.278 180.922 280.216 184.859 280.216 189.703H266.669C266.669 187.766 266.044 186.172 264.794 184.922C263.544 183.641 261.591 183 258.934 183C256.653 183 254.887 183.516 253.637 184.547C252.387 185.578 251.762 186.891 251.762 188.484C251.762 189.984 252.466 191.203 253.872 192.141C255.309 193.047 257.716 193.844 261.091 194.531C264.466 195.188 267.309 195.938 269.622 196.781C276.778 199.406 280.356 203.953 280.356 210.422C280.356 215.047 278.372 218.797 274.403 221.672C270.434 224.516 265.309 225.938 259.028 225.938C254.778 225.938 250.997 225.188 247.684 223.688C244.403 222.156 241.825 220.078 239.95 217.453C238.075 214.797 237.137 211.938 237.137 208.875H249.981C250.106 211.281 250.997 213.125 252.653 214.406C254.309 215.688 256.528 216.328 259.309 216.328C261.903 216.328 263.856 215.844 265.169 214.875C266.512 213.875 267.184 212.578 267.184 210.984Z" fill="#5C5C5C"/>
</svg>
