<svg id="_x33_0" enable-background="new 0 0 64 64" height="512" viewBox="0 0 64 64" width="512" xmlns="http://www.w3.org/2000/svg"><g><path d="m26 15c1.654 0 3-1.346 3-3v-7h-2v7c0 .551-.448 1-1 1s-1-.449-1-1v-7c0-1.103.897-2 2-2h2c1.103 0 2 .897 2 2v8h2v-8c0-2.206-1.794-4-4-4h-2c-2.206 0-4 1.794-4 4v7c0 1.654 1.346 3 3 3z"/><path d="m35 37h12v12h-12z"/><path d="m3 37h4v16h-4z"/><path d="m18.121 39.464.947-.944 4.144 4.973c.798.958 1.975 1.507 3.231 1.507.329 0 .557-.228.557-.508 0-.16-.028-.261-.081-.349l-4.611-7.687c-.539-.898-1.525-1.456-2.573-1.456h-3.616c-1.188 0-2.339.349-3.328 1.008l-3.791 2.527v11.847l1.869.935c1.904.952 4.006 1.489 6.131 1.625v-10.194c-1.522.812-3.226 1.252-5 1.252v-2c2.312 0 4.486-.9 6.121-2.536z"/><path d="m35 15h2v2h-4v-2h-3.002c-.913 1.214-2.365 2-3.998 2-2.757 0-5-2.243-5-5v-3h-2v24h.735c1.746 0 3.389.93 4.287 2.427l4.611 7.686c.24.399.367.855.367 1.321 0 1.441-1.125 2.566-2.507 2.566-1.901 0-3.639-.812-4.818-2.227l-2.675-3.211v19.438h32v-52h-16zm-14 34h4v2h-4zm10 10h-10v-2h10zm0-4h-10v-2h10zm0-4h-4v-2h4zm0-22h-8v-2h8zm0-4h-8v-2h8zm18 34h-16v-2h16zm-16-4v-2h4v2zm16 0h-10v-2h10zm0-4h-16v-16h16zm0-18h-16v-2h16zm-16-4v-2h4v2zm16 0h-10v-2h10zm0-4h-16v-2h16zm0-4h-26v-2h26zm-10-6h10v2h-10z"/><path d="m60.992 52.992-5.776-49.029c-.067-.599-.616-1.027-1.22-.953l-18.996 2.59v1.4h16c1.103 0 2 .897 2 2v46.62l6.982-1.27c.59-.107 1.018-.62 1.018-1.219 0-.046-.002-.092-.008-.139z"/></g></svg>