<svg width="182" height="140" viewBox="0 0 182 140" fill="none" xmlns="http://www.w3.org/2000/svg">
<path d="M57.9487 61V9.73047H68.2026V61H57.9487ZM72.231 61V51.9912H72.5972C75.5269 51.9912 77.48 50.7705 78.4565 48.3291C78.7983 47.5479 78.9692 46.7422 78.9692 45.9121C78.9692 43.4707 77.9927 41.7129 76.0396 40.6387C75.063 40.1016 73.9888 39.833 72.8169 39.833H72.231V30.8975H72.8169C75.5513 30.8975 77.4312 29.7256 78.4565 27.3818C78.7983 26.5518 78.9692 25.6973 78.9692 24.8184C78.9692 22.4258 77.9683 20.668 75.9663 19.5449C74.9409 19.0078 73.8179 18.7393 72.5972 18.7393H72.231V9.73047H73.9888C80.3364 9.73047 84.8042 12.0498 87.3921 16.6885C88.6128 18.9346 89.2231 21.4004 89.2231 24.0859C89.2231 28.334 87.9292 31.7764 85.3413 34.4131C84.9507 34.7549 84.5845 35.0723 84.2427 35.3652C87.0747 37.4648 88.7104 40.6631 89.1499 44.96C89.1987 45.5459 89.2231 46.1074 89.2231 46.6445C89.2231 51.3809 87.563 55.0918 84.2427 57.7773C81.5083 59.9258 78.0903 61 73.9888 61H72.231ZM92.9233 61V9.73047H103.25V30.165H106.107V40.2725H103.25V61H92.9233ZM110.135 40.2725V30.165H112.992V9.73047H123.319V61H112.992V40.2725H110.135ZM10.7412 121V69.7305H21.0684V110.746H38.2803V121H10.7412ZM38.3916 79.252H48.9385L58.6797 111.771L50.6963 135.648H40.5889L47.9131 111.625L38.3916 79.252ZM55.5303 89.0664L58.6064 79.252H69.1533L60.877 104.008H59.9248L55.5303 89.0664ZM70.876 121V79.252H80.8369V83.8662C82.5459 81.6689 84.8652 80.1553 87.7949 79.3252C88.8203 79.0322 89.8457 78.8857 90.8711 78.8857H93.5078L91.2373 88.7002C88.1611 88.749 85.5 90.0918 83.2539 92.7285C81.6426 94.6328 80.8369 96.6104 80.8369 98.6611V121H70.876ZM96.4023 73.3193C96.4023 71.3174 97.3057 69.8037 99.1123 68.7783C99.9424 68.29 100.821 68.0459 101.749 68.0459C103.8 68.0459 105.338 68.9492 106.363 70.7559C106.803 71.5859 107.022 72.4404 107.022 73.3193C107.022 75.3701 106.119 76.9082 104.312 77.9336C103.482 78.373 102.628 78.5928 101.749 78.5928C99.6494 78.5928 98.0869 77.665 97.0615 75.8096C96.6221 75.0283 96.4023 74.1982 96.4023 73.3193ZM96.915 121V81.4492H106.729V121H96.915ZM111.968 109.647V90.458C112.017 87.9189 113.091 85.5264 115.19 83.2803C117.729 80.5947 120.977 79.252 124.932 79.252V88.627C122.881 88.7734 121.758 89.4326 121.562 90.6045V109.647C121.562 110.819 122.417 111.479 124.126 111.625C124.419 111.674 124.712 111.698 125.005 111.698V121C119.829 121 116.021 118.974 113.579 114.921C112.505 113.114 111.968 111.356 111.968 109.647ZM128.301 88.7002V79.252C132.158 79.252 135.283 80.7412 137.676 83.7197C139.385 85.8193 140.239 88.1875 140.239 90.8242L131.304 94.2666V91.8496C131.206 89.7988 130.205 88.749 128.301 88.7002ZM128.301 121.073V111.625C130.4 111.625 131.621 111.063 131.963 109.94C132.109 109.501 132.183 108.988 132.183 108.402V105.985L141.118 109.428C141.167 112.748 139.653 115.653 136.577 118.144C134.038 120.194 131.279 121.171 128.301 121.073ZM142.548 110.014L151.63 108.329C151.63 109.94 152.46 111.088 154.12 111.771C154.706 111.967 155.243 112.089 155.731 112.138V121.366C150.067 121.366 146.137 119.364 143.939 115.36C143.012 113.7 142.548 111.918 142.548 110.014ZM142.987 90.6777C142.987 86.1367 145.111 82.7676 149.359 80.5703C151.459 79.4473 153.534 78.8857 155.585 78.8857V87.9678C153.192 88.0166 151.996 88.9199 151.996 90.6777C151.996 92.5332 154.242 94.1689 158.734 95.585C160.395 96.1221 162.348 96.6348 164.594 97.123C167.963 97.7578 170.355 99.6377 171.771 102.763C172.504 104.374 172.87 106.156 172.87 108.109C172.87 113.188 170.868 116.923 166.864 119.315C164.569 120.683 161.957 121.366 159.027 121.366V112.138C160.736 112.138 162.006 111.576 162.836 110.453C163.227 109.916 163.422 109.33 163.422 108.695C163.422 107.182 161.566 105.863 157.855 104.74C157.27 104.594 156.366 104.35 155.146 104.008C152.558 103.324 150.775 102.763 149.799 102.323C146.234 100.517 144.086 97.8555 143.354 94.3398C143.109 93.168 142.987 91.9473 142.987 90.6777ZM158.881 87.9678L158.954 78.8857C163.349 78.8857 166.889 80.4971 169.574 83.7197C171.283 85.8193 172.138 88.041 172.138 90.3848L163.129 91.9229C163.129 89.7256 161.957 88.4316 159.613 88.041C159.32 87.9922 159.076 87.9678 158.881 87.9678Z" fill="white"/>
</svg>
